<svg width="18" height="20" viewBox="0 0 18 20" fill="none" xmlns="http://www.w3.org/2000/svg">
<path d="M6.23664 19.9999C3.26004 19.9828 0.797852 13.9065 0.797852 10.812C0.797852 5.7572 4.58984 4.65056 6.05125 4.65056C6.70984 4.65056 7.41309 4.90919 8.03336 5.13806C8.46711 5.2977 8.9157 5.46251 9.1652 5.46251C9.31453 5.46251 9.66644 5.32231 9.97715 5.19931C10.6398 4.93552 11.4643 4.60767 12.4245 4.60767C12.4262 4.60767 12.4285 4.60767 12.4302 4.60767C13.1471 4.60767 15.3209 4.76501 16.6279 6.72766L16.934 7.1877L16.4934 7.52017C15.864 7.99509 14.7155 8.86141 14.7155 10.5775C14.7155 12.6099 16.0162 13.3916 16.641 13.7675C16.9168 13.9334 17.2023 14.1045 17.2023 14.4788C17.2023 14.7231 15.2523 19.9696 12.4204 19.9696C11.7275 19.9696 11.2377 19.7613 10.8057 19.5777C10.3685 19.3917 9.99141 19.2315 9.36828 19.2315C9.05242 19.2315 8.65301 19.3808 8.23016 19.5393C7.6523 19.755 6.99824 19.9999 6.25609 19.9999H6.23664Z" fill="white"/>
<path d="M12.7244 0C12.7982 2.65922 10.8964 4.50406 8.99687 4.38836C8.68386 2.26621 10.8962 0 12.7244 0Z" fill="white"/>
</svg>
